<svg width="47" height="47" viewBox="0 0 47 47" fill="none" xmlns="http://www.w3.org/2000/svg">
<rect width="46.3289" height="46.3286" rx="23.1643" fill="#282650"/>
<path d="M12.6543 17.9093H17.9095V23.1645C17.9095 24.5582 17.3558 25.8949 16.3703 26.8804C15.3848 27.866 14.0481 28.4196 12.6543 28.4196C11.2606 28.4196 9.92391 27.866 8.93837 26.8804C7.95284 25.8949 7.39917 24.5582 7.39917 23.1645C7.39917 21.7707 7.95284 20.434 8.93837 19.4485C9.92391 18.463 11.2606 17.9093 12.6543 17.9093Z" fill="#C4F44F"/>
<path d="M23.1635 28.4194C22.1242 28.4194 21.1082 28.7276 20.2441 29.3051C19.3799 29.8825 18.7064 30.7032 18.3087 31.6635C17.911 32.6237 17.8069 33.6803 18.0097 34.6996C18.2124 35.719 18.7129 36.6553 19.4479 37.3902C20.1828 38.1252 21.1191 38.6256 22.1385 38.8284C23.1578 39.0312 24.2144 38.9271 25.1746 38.5294C26.1349 38.1317 26.9556 37.4582 27.533 36.594C28.1105 35.7299 28.4187 34.7139 28.4187 33.6745V28.4194H23.1635Z" fill="#C4F44F"/>
<path d="M23.1637 7.39923C24.5575 7.39923 25.8941 7.9529 26.8797 8.93844C27.8652 9.92397 28.4189 11.2606 28.4189 12.6544V17.9096H17.9087V12.6544C17.9087 11.2607 18.4623 9.92402 19.4478 8.93849C20.4333 7.95296 21.77 7.39927 23.1637 7.39923Z" fill="#C4F44F"/>
<path d="M28.4207 17.9093H38.931V17.9093C38.931 23.714 34.2254 28.4196 28.4207 28.4196V28.4196V17.9093Z" fill="#C4F44F"/>
</svg>
